# xmcd
#
# Track frame offsets:
#	150
#	10365
#	19194
#	30512
#	40775
#	51422
#	63152
#	74264
#	92096
#	103151
#	116573
#	129294
#	141263
#	155854
#	168577
#	184158
#	196854
#	209863
#	221834
#	238753
#	248772
#	260944
#	270926
#	281735
#	297346
#
# Disc length: 4094
#
# Revision: 2
# Processed by: cddbd v1.5.1PL0 Copyright (c) Steve Scherf et al.
# Submitted via: audiograbber 1.80
# Normalized: r1:DSETVAR1
#
DISCID=890ffc19
DTITLE=Various Artist - Hity storocia v style country
DYEAR=1900
DGENRE=
TTITLE0=Johny Darell - Ruby, Don't Take Your Love To Town
TTITLE1=Lynn Anderson - Rocky Top
TTITLE2=Johny Paycheck - Release Me
TTITLE3=Bob Luman - When You Say
TTITLE4=Tommy Cash - Rise And Shine
TTITLE5=Sammi Smith - Help Me Make It Through The Night
TTITLE6=Faron Young - Crying Time
TTITLE7=Ferlin Husky - Sunday morning Coming Down
TTITLE8=Billy Walker - When A Man Loves A Woman
TTITLE9=David Houston - Almost Persuaded
TTITLE10=Lynn Anderson - Top Of The World
TTITLE11=Skeeter Davis - The End Of The World
TTITLE12=Johny Paycheck - Green, Green Grass Of Home
TTITLE13=Boxcar Villie - Spirit Of America
TTITLE14=Melba Montgomery - No Charge
TTITLE15=Lynn Anderson - I Fall To Pieces
TTITLE16=Faron Young - It's Four In The Morning
TTITLE17=Del Reewes - The Girl On The BillBoard
TTITLE18=Ferlin Husky - For The Good Times
TTITLE19=Mac Wiseman - Jimmy Brown The Newsboy
TTITLE20=Boxcar Willie - Trucker's Prayer
TTITLE21=Kitty Wells - I Can't Stop Loving You
TTITLE22=Johny Russell - King Of The Road
TTITLE23=Red Simpson - I'm A Truck
TTITLE24=Skeeter Davis - I Can't Believe That It's All Over
EXTD=
EXTT0=
EXTT1=
EXTT2=
EXTT3=
EXTT4=
EXTT5=
EXTT6=
EXTT7=
EXTT8=
EXTT9=
EXTT10=
EXTT11=
EXTT12=
EXTT13=
EXTT14=
EXTT15=
EXTT16=
EXTT17=
EXTT18=
EXTT19=
EXTT20=
EXTT21=
EXTT22=
EXTT23=
EXTT24=
PLAYORDER=
